<svg id="Layer_1" data-name="Layer 1" xmlns="http://www.w3.org/2000/svg" xmlns:xlink="http://www.w3.org/1999/xlink" viewBox="0 0 591.28 591.28"><defs><linearGradient id="linear-gradient" x1="77.71" y1="2810.3" x2="503.11" y2="2810.3" gradientTransform="translate(0 -2618.17)" gradientUnits="userSpaceOnUse"><stop offset="0.01" stop-color="#c7c8c9"/><stop offset="0.21" stop-color="#fff"/><stop offset="0.81" stop-color="#f7f8f9"/><stop offset="1" stop-color="#c7c8c9"/></linearGradient></defs><title>GALLAB - Wide Short 1 Shown Option C-09</title><rect x="0.32" y="0.32" width="590.64" height="590.64" fill="#fff" stroke="#010101" stroke-miterlimit="10" stroke-width="0.64"/><path d="M514,299c0,46-82.58,177.19-82.58,177.19l-27.84-27.68h0C300.44,494,178,449.5,178,449.5l-28.08,25.6S64.42,338.87,69.3,295.83" transform="translate(0.32 0.32)" fill="none" stroke="#d1d3d4" stroke-miterlimit="10" stroke-width="2.89"/><path d="M285.81,363.16l-43.26-37s-91.3,111.94-80.06,115.67c29.26,9.72,80.46,20.22,80.46,20.22Z" transform="translate(0.32 0.32)" fill="#fff" stroke="#010101" stroke-miterlimit="10" stroke-width="5"/><polygon points="110.28 243.48 450.58 249.2 306.89 366.44 110.28 243.48" fill="#bdbec0"/><path d="M290.21,245.07c-173,0-197.08,17.35-197.08,17.35S60,232.57,90.85,154.82c10.93-33,199.68-33,199.68-33s187.89,0,199.68,30c30.52,78.1-2.67,110.29-2.67,110.29S463.63,245.07,290.21,245.07Z" transform="translate(0.32 0.32)" stroke="#010101" stroke-miterlimit="10" stroke-width="5" fill="url(#linear-gradient)"/><path d="M300.75,333.92s-55.52-1.73-57.8,128.17a311.06,311.06,0,0,0,144.39-8.16c93.67-29.68-37-99.36-76.28-119A11.91,11.91,0,0,0,300.75,333.92Z" transform="translate(0.32 0.32)" fill="#fff"/><path d="M300.75,333.92s-55.52-1.73-57.8,128.17a318.54,318.54,0,0,0,144.39-8.68c93.67-30-37-98.84-76.28-118.53A11.91,11.91,0,0,0,300.75,333.92Z" transform="translate(0.32 0.32)" fill="none" stroke="#010101" stroke-miterlimit="10" stroke-width="5"/><path d="M431,471.81,292.73,336.52S534.49,222.07,486.12,148.23a47.34,47.34,0,0,1,19.66,29.07s22.1,58.65,21.87,96.83c0,33.93-28.31,76.71-52.38,119.93Z" transform="translate(0.32 0.32)" fill="#fff" stroke="#010101" stroke-miterlimit="10" stroke-width="5"/><path d="M151.8,471.81,290.06,336.52S48.3,222.07,96.66,148.23A47.42,47.42,0,0,0,77,177.3S54.9,236,55.14,274.13c0,33.93,28.31,76.71,52.38,119.93Z" transform="translate(0.32 0.32)" fill="#fff" stroke="#010101" stroke-miterlimit="10" stroke-width="5"/><ellipse cx="291.87" cy="405.74" rx="15.34" ry="16.92" fill="#fff" stroke="#010101" stroke-miterlimit="10" stroke-width="5"/><ellipse cx="286.99" cy="405.4" rx="2.44" ry="2.69" fill="#fff" stroke="#010101" stroke-miterlimit="10" stroke-width="2"/><ellipse cx="296.51" cy="405.57" rx="2.44" ry="2.69" fill="#fff" stroke="#010101" stroke-miterlimit="10" stroke-width="2"/><line x1="286.68" y1="405.4" x2="296.75" y2="405.4" fill="none" stroke="#010101" stroke-miterlimit="10" stroke-width="2"/></svg>