<svg id="Layer_1" data-name="Layer 1" xmlns="http://www.w3.org/2000/svg" xmlns:xlink="http://www.w3.org/1999/xlink" viewBox="0 0 63 63"><defs><style>.cls-1,.cls-5,.cls-7{fill:none;}.cls-1{stroke:#d1d3d4;stroke-width:3.19px;}.cls-1,.cls-3,.cls-4,.cls-5,.cls-7{stroke-miterlimit:10;}.cls-2{fill:#bdbec0;}.cls-3{stroke:#010101;fill:url(#linear-gradient);}.cls-3,.cls-4,.cls-5{stroke-width:0.71px;}.cls-4,.cls-6{fill:#fff;}.cls-4,.cls-5{stroke:#231f20;}.cls-7{stroke:#bcbec0;stroke-width:0.35px;stroke-dasharray:0.68 0.34;}</style><linearGradient id="linear-gradient" x1="1.96" y1="24.5" x2="60.17" y2="24.5" gradientUnits="userSpaceOnUse"><stop offset="0.01" stop-color="#c7c8c9"/><stop offset="0.21" stop-color="#fff"/><stop offset="0.81" stop-color="#f7f8f9"/><stop offset="1" stop-color="#c7c8c9"/></linearGradient></defs><title>Sada - Medium - 2 Button Hidden Option C</title><path class="cls-1" d="M2.47,36.32c-1.06,5,13.94,12.23,29.87,11.93C49,47.93,61.85,40.81,60.48,35.38,59.61,31.92,56.83,33,56.83,33L32.57,40.62l-18-7.29S3.69,30.63,2.47,36.32Z"/><polygon class="cls-2" points="5.04 27 52.85 27.73 32.66 42.65 5.04 27"/><path class="cls-3" d="M59.1,35.75c0-3.58-12.79-6.48-28.57-6.48S2,32.17,2,35.75L3,19.73c0-3.58,12.79-6.48,28.57-6.48s28.57,2.9,28.57,6.48Z"/><path class="cls-4" d="M3.11,19.37C3,20.11,2.16,21,1.33,34.15h0c0,7.53,14.46,14,30.15,14s30.19-6.46,30.19-14C60.84,21,59.94,19,59.93,18.94v-.16c0,7.53-12.72,13.67-28.41,13.67S3.11,26.9,3.11,19.37Z"/><line class="cls-5" x1="23.54" y1="31.92" x2="22.63" y2="47.68"/><circle class="cls-6" cx="31.33" cy="37.53" r="2.12"/><path class="cls-7" d="M31.33,35.41a2.12,2.12,0,1,1-2.12,2.12A2.12,2.12,0,0,1,31.33,35.41Z"/><circle class="cls-6" cx="31.33" cy="43.22" r="2.12"/><path class="cls-7" d="M31.33,41.1a2.12,2.12,0,1,1-2.12,2.12A2.12,2.12,0,0,1,31.33,41.1Z"/></svg>